# xmcd CD database file
#
# Track frame offsets:
#	150
#	19752
#	43262
#	68725
#	89720
#
# Disc length: 1419 seconds
#
# Revision: 7
# Processed by: cddbd v1.5PL3 Copyright (c) Steve Scherf et al.
# Submitted via: CDex 1.50
#
DISCID=40058905
DTITLE=元　ちとせ - コトノハ
DYEAR=2001
DGENRE=Pop
TTITLE0=コトノハ
TTITLE1=約束
TTITLE2=竜宮の使い
TTITLE3=精霊
TTITLE4=三八月
EXTD=YEAR: 2001
EXTT0=
EXTT1=
EXTT2=
EXTT3=
EXTT4=
PLAYORDER=
